<svg width="45" height="45" viewBox="0 0 45 45" fill="none" xmlns="http://www.w3.org/2000/svg">
<path d="M5.625 15H39.375C39.8723 15 40.3492 14.8025 40.7008 14.4508C41.0525 14.0992 41.25 13.6223 41.25 13.125C41.25 12.6277 41.0525 12.1508 40.7008 11.7992C40.3492 11.4475 39.8723 11.25 39.375 11.25H5.625C5.12772 11.25 4.65081 11.4475 4.29917 11.7992C3.94754 12.1508 3.75 12.6277 3.75 13.125C3.75 13.6223 3.94754 14.0992 4.29917 14.4508C4.65081 14.8025 5.12772 15 5.625 15ZM39.375 30H5.625C5.12772 30 4.65081 30.1975 4.29917 30.5492C3.94754 30.9008 3.75 31.3777 3.75 31.875C3.75 32.3723 3.94754 32.8492 4.29917 33.2008C4.65081 33.5525 5.12772 33.75 5.625 33.75H39.375C39.8723 33.75 40.3492 33.5525 40.7008 33.2008C41.0525 32.8492 41.25 32.3723 41.25 31.875C41.25 31.3777 41.0525 30.9008 40.7008 30.5492C40.3492 30.1975 39.8723 30 39.375 30ZM39.375 20.625H5.625C5.12772 20.625 4.65081 20.8225 4.29917 21.1742C3.94754 21.5258 3.75 22.0027 3.75 22.5C3.75 22.9973 3.94754 23.4742 4.29917 23.8258C4.65081 24.1775 5.12772 24.375 5.625 24.375H39.375C39.8723 24.375 40.3492 24.1775 40.7008 23.8258C41.0525 23.4742 41.25 22.9973 41.25 22.5C41.25 22.0027 41.0525 21.5258 40.7008 21.1742C40.3492 20.8225 39.8723 20.625 39.375 20.625Z" fill="#1B1B1B"/>
</svg>
