<svg width="42" height="44" viewBox="0 0 42 44" fill="none" xmlns="http://www.w3.org/2000/svg">
<path d="M21 21.9999C19.075 21.9999 17.4271 21.2819 16.0563 19.8458C14.6854 18.4096 14 16.6833 14 14.6666C14 12.6499 14.6854 10.9235 16.0563 9.48742C17.4271 8.05131 19.075 7.33325 21 7.33325C22.925 7.33325 24.5729 8.05131 25.9438 9.48742C27.3146 10.9235 28 12.6499 28 14.6666C28 16.6833 27.3146 18.4096 25.9438 19.8458C24.5729 21.2819 22.925 21.9999 21 21.9999ZM7 36.6666V31.5333C7 30.4944 7.25521 29.5395 7.76562 28.6687C8.27604 27.7978 8.95417 27.1333 9.8 26.6749C11.6083 25.7277 13.4458 25.0173 15.3125 24.5437C17.1792 24.0701 19.075 23.8333 21 23.8333C22.925 23.8333 24.8208 24.0701 26.6875 24.5437C28.5542 25.0173 30.3917 25.7277 32.2 26.6749C33.0458 27.1333 33.724 27.7978 34.2344 28.6687C34.7448 29.5395 35 30.4944 35 31.5333V36.6666H7ZM10.5 32.9999H31.5V31.5333C31.5 31.1971 31.4198 30.8916 31.2594 30.6166C31.099 30.3416 30.8875 30.1277 30.625 29.9749C29.05 29.1499 27.4604 28.5312 25.8563 28.1187C24.2521 27.7062 22.6333 27.4999 21 27.4999C19.3667 27.4999 17.7479 27.7062 16.1438 28.1187C14.5396 28.5312 12.95 29.1499 11.375 29.9749C11.1125 30.1277 10.901 30.3416 10.7406 30.6166C10.5802 30.8916 10.5 31.1971 10.5 31.5333V32.9999ZM21 18.3333C21.9625 18.3333 22.7865 17.9742 23.4719 17.2562C24.1573 16.5381 24.5 15.6749 24.5 14.6666C24.5 13.6583 24.1573 12.7951 23.4719 12.077C22.7865 11.3589 21.9625 10.9999 21 10.9999C20.0375 10.9999 19.2135 11.3589 18.5281 12.077C17.8427 12.7951 17.5 13.6583 17.5 14.6666C17.5 15.6749 17.8427 16.5381 18.5281 17.2562C19.2135 17.9742 20.0375 18.3333 21 18.3333Z" fill="#1D1B20"/>
</svg>
