<svg width="50" height="50" viewBox="0 0 50 50" fill="none" xmlns="http://www.w3.org/2000/svg">
<path d="M33.3333 43.75V39.5833C33.3333 37.3732 32.4553 35.2536 30.8925 33.6908C29.3297 32.128 27.2101 31.25 25 31.25H10.4166C8.20651 31.25 6.08689 32.128 4.52409 33.6908C2.96129 35.2536 2.08331 37.3732 2.08331 39.5833V43.75M41.6666 16.6667V29.1667M47.9166 22.9167H35.4166M26.0416 14.5833C26.0416 19.1857 22.3107 22.9167 17.7083 22.9167C13.1059 22.9167 9.37498 19.1857 9.37498 14.5833C9.37498 9.98096 13.1059 6.25 17.7083 6.25C22.3107 6.25 26.0416 9.98096 26.0416 14.5833Z" stroke="#1E1E1E" stroke-width="4" stroke-linecap="round" stroke-linejoin="round"/>
</svg>
