<svg width="50" height="50" viewBox="0 0 50 50" fill="none" xmlns="http://www.w3.org/2000/svg">
<g clip-path="url(#clip0_440_6587)">
<path d="M35.4167 43.75V39.5833C35.4167 37.3732 34.5387 35.2536 32.9759 33.6908C31.4131 32.128 29.2935 31.25 27.0834 31.25H10.4167C8.20657 31.25 6.08695 32.128 4.52415 33.6908C2.96135 35.2536 2.08337 37.3732 2.08337 39.5833V43.75M47.9167 43.75V39.5833C47.9153 37.7369 47.3008 35.9433 46.1695 34.484C45.0383 33.0247 43.4545 31.9824 41.6667 31.5208M33.3334 6.52083C35.1259 6.97979 36.7147 8.02229 37.8493 9.48398C38.9839 10.9457 39.5997 12.7434 39.5997 14.5937C39.5997 16.4441 38.9839 18.2418 37.8493 19.7035C36.7147 21.1652 35.1259 22.2077 33.3334 22.6667M27.0834 14.5833C27.0834 19.1857 23.3524 22.9167 18.75 22.9167C14.1477 22.9167 10.4167 19.1857 10.4167 14.5833C10.4167 9.98096 14.1477 6.25 18.75 6.25C23.3524 6.25 27.0834 9.98096 27.0834 14.5833Z" stroke="#1E1E1E" stroke-width="3.5" stroke-linecap="round" stroke-linejoin="round"/>
</g>
<defs>
<clipPath id="clip0_440_6587">
<rect width="50" height="50" fill="white"/>
</clipPath>
</defs>
</svg>
