<svg width="50" height="50" viewBox="0 0 50 50" fill="none" xmlns="http://www.w3.org/2000/svg">
<path d="M25.0001 4.16675C20.9594 4.17443 17.0082 5.35698 13.6276 7.57037C10.2471 9.78376 7.58318 12.9325 5.96036 16.6329C4.33753 20.3334 3.82584 24.426 4.48762 28.4121C5.14939 32.3982 6.95606 36.1058 9.68756 39.0834V39.0834C11.6384 41.1981 14.0062 42.8858 16.6416 44.0401C19.277 45.1944 22.1229 45.7903 25.0001 45.7903C27.8772 45.7903 30.7231 45.1944 33.3585 44.0401C35.9939 42.8858 38.3617 41.1981 40.3126 39.0834V39.0834C43.0441 36.1058 44.8507 32.3982 45.5125 28.4121C46.1743 24.426 45.6626 20.3334 44.0398 16.6329C42.4169 12.9325 39.753 9.78376 36.3725 7.57037C32.992 5.35698 29.0407 4.17443 25.0001 4.16675V4.16675ZM25.0001 41.6667C20.6844 41.6602 16.5395 39.9798 13.4376 36.9792C14.3793 34.6866 15.9814 32.7257 18.0402 31.3457C20.099 29.9657 22.5215 29.2288 25.0001 29.2288C27.4786 29.2288 29.9012 29.9657 31.96 31.3457C34.0187 32.7257 35.6208 34.6866 36.5626 36.9792C33.4607 39.9798 29.3158 41.6602 25.0001 41.6667ZM20.8334 20.8334C20.8334 20.0093 21.0778 19.2037 21.5356 18.5185C21.9934 17.8333 22.6442 17.2993 23.4055 16.9839C24.1669 16.6686 25.0047 16.586 25.8129 16.7468C26.6212 16.9076 27.3636 17.3044 27.9463 17.8871C28.5291 18.4699 28.9259 19.2123 29.0867 20.0205C29.2474 20.8288 29.1649 21.6666 28.8496 22.4279C28.5342 23.1893 28.0001 23.84 27.3149 24.2979C26.6297 24.7557 25.8242 25.0001 25.0001 25.0001C23.895 25.0001 22.8352 24.5611 22.0538 23.7797C21.2724 22.9983 20.8334 21.9385 20.8334 20.8334ZM39.3959 33.3334C37.5345 30.1496 34.6697 27.6731 31.2501 26.2917C32.3108 25.089 33.002 23.6056 33.2406 22.0197C33.4793 20.4339 33.2552 18.8128 32.5954 17.3511C31.9355 15.8894 30.8679 14.6492 29.5207 13.7792C28.1735 12.9092 26.6038 12.4464 25.0001 12.4464C23.3963 12.4464 21.8267 12.9092 20.4794 13.7792C19.1322 14.6492 18.0646 15.8894 17.4047 17.3511C16.7449 18.8128 16.5209 20.4339 16.7595 22.0197C16.9981 23.6056 17.6893 25.089 18.7501 26.2917C15.3305 27.6731 12.4656 30.1496 10.6042 33.3334C9.12078 30.8065 8.33698 27.9302 8.33339 25.0001C8.33339 20.5798 10.0893 16.3406 13.2149 13.215C16.3406 10.0894 20.5798 8.33341 25.0001 8.33341C29.4203 8.33341 33.6596 10.0894 36.7852 13.215C39.9108 16.3406 41.6667 20.5798 41.6667 25.0001C41.6631 27.9302 40.8793 30.8065 39.3959 33.3334V33.3334Z" fill="#1B1B1B"/>
</svg>
